####
#
# OBJ File Generated by Meshlab
#
####
# Object a knife with affordances of grasp, cut, stab .obj
#
# Vertices: 26
# Faces: 48
#
####
vn -3.000924 -0.591388 -1.694470
v -0.008500 -0.315714 -0.008095 0.800000 0.800000 0.803922
vn -0.245356 -0.115650 -6.270583
v -0.008095 -0.315714 -0.008129 0.800000 0.800000 0.803922
vn -0.313092 -0.749083 -0.143412
v -0.008095 -0.317355 -0.008095 0.800000 0.800000 0.803922
vn -2.283374 -1.611829 4.141003
v -0.008095 -0.315714 -0.007260 0.800000 0.800000 0.803922
vn -2.727910 -0.284192 -1.253858
v -0.011722 -0.299524 -0.008095 0.800000 0.800000 0.803922
vn -0.226391 -0.054040 -6.272376
v -0.008095 -0.299524 -0.008376 0.800000 0.800000 0.807843
vn -2.132768 -0.674766 4.680257
v -0.008095 -0.299524 -0.002753 0.800000 0.800000 0.807843
vn -2.708806 0.068323 -1.211608
v -0.012214 -0.283333 -0.008095 0.800000 0.796078 0.800000
vn -0.224561 0.013675 -6.273593
v -0.008095 -0.283333 -0.008405 0.800000 0.796078 0.800000
vn -2.221309 0.180838 4.895051
v -0.008095 -0.283333 -0.002456 0.800000 0.796078 0.800000
vn -2.746715 0.441648 -1.295579
v -0.010727 -0.267143 -0.008095 0.800000 0.800000 0.803922
vn -0.233570 0.081076 -6.271724
v -0.008095 -0.267143 -0.008303 0.800000 0.800000 0.803922
vn -2.169113 1.068868 4.655533
v -0.008095 -0.267143 -0.004187 0.800000 0.800000 0.803922
vn -0.239383 0.565456 -0.078882
v -0.008095 -0.256239 -0.008095 0.800000 0.800000 0.807843
vn 0.403312 -1.187613 -0.238336
v -0.001975 -0.315714 -0.008095 0.800000 0.800000 0.803922
vn 0.407612 -0.058769 -6.256532
v 0.008095 -0.299524 -0.008297 0.800000 0.800000 0.803922
vn 0.531763 -0.623660 -0.113815
v 0.008095 -0.312200 -0.008095 0.800000 0.800000 0.803922
vn 2.956785 -0.685886 4.219833
v 0.008095 -0.299524 -0.004259 0.800000 0.800000 0.803922
vn 0.384027 0.010146 -6.259569
v 0.008095 -0.283333 -0.008353 0.800000 0.800000 0.803922
vn 2.937783 0.177627 4.421266
v 0.008095 -0.283333 -0.003611 0.800000 0.800000 0.803922
vn 0.446580 0.093667 -6.250309
v 0.008095 -0.267143 -0.008236 0.800000 0.800000 0.803922
vn 2.964860 0.992775 4.091882
v 0.008095 -0.267143 -0.005534 0.800000 0.800000 0.803922
vn 0.575444 0.754799 -0.157374
v 0.008095 -0.260586 -0.008095 0.800000 0.800000 0.803922
vn 3.237312 -0.254965 -1.833603
v 0.009698 -0.299524 -0.008095 0.800000 0.800000 0.803922
vn 3.153870 0.072793 -1.686092
v 0.010253 -0.283333 -0.008095 0.800000 0.800000 0.803922
vn 3.299188 0.335763 -1.881108
v 0.009099 -0.267143 -0.008095 0.800000 0.800000 0.803922
# 26 vertices, 0 vertices normals

f 2//2 3//3 1//1
f 4//4 1//1 3//3
f 2//2 1//1 5//5
f 2//2 5//5 6//6
f 1//1 4//4 7//7
f 1//1 7//7 5//5
f 6//6 5//5 8//8
f 6//6 8//8 9//9
f 5//5 7//7 10//10
f 5//5 10//10 8//8
f 9//9 8//8 11//11
f 9//9 11//11 12//12
f 8//8 10//10 13//13
f 8//8 13//13 11//11
f 14//14 12//12 11//11
f 14//14 11//11 13//13
f 2//2 15//15 3//3
f 15//15 4//4 3//3
f 16//16 17//17 15//15
f 2//2 16//16 15//15
f 6//6 16//16 2//2
f 4//4 15//15 17//17
f 18//18 4//4 17//17
f 7//7 4//4 18//18
f 9//9 16//16 6//6
f 9//9 19//19 16//16
f 18//18 10//10 7//7
f 20//20 10//10 18//18
f 12//12 19//19 9//9
f 12//12 21//21 19//19
f 20//20 13//13 10//10
f 22//22 13//13 20//20
f 23//23 21//21 12//12
f 23//23 12//12 14//14
f 14//14 13//13 22//22
f 14//14 22//22 23//23
f 16//16 24//24 17//17
f 24//24 18//18 17//17
f 19//19 25//25 24//24
f 19//19 24//24 16//16
f 25//25 20//20 18//18
f 25//25 18//18 24//24
f 21//21 26//26 25//25
f 21//21 25//25 19//19
f 26//26 22//22 20//20
f 26//26 20//20 25//25
f 23//23 26//26 21//21
f 26//26 23//23 22//22
# 48 faces, 0 coords texture

# End of File
